<?xml version="1.0"?>
<svg xmlns="http://www.w3.org/2000/svg" version="1.1" viewBox="-281.59999961853026 -3409.9202026367184 4094.976171875 3983.36025390625">
  <desc>
		Created with Snap
	</desc>
  <defs/>
  <g>
    <rect x="-281.59999961853026" y="-3409.9202026367184" width="4094.976171875" height="3983.36025390625" style="" fill="#3c787e">
	</rect>
    <g transform="matrix(66.24,0,0,66.24,706.048,-3101.6603)">
      <g display="none">
        <rect x="-331.365" y="-102.667" display="inline" fill="#ffffff" width="473.333" height="236" style="">
			</rect>
      </g>
      <g display="none">
        <g display="inline">
          <g>
            <path d="M30,1.984v28H2v-28H30 M32-0.016H0v32h32V-0.016L32-0.016z" style="" fill="#ffffff">
					</path>
          </g>
        </g>
        <g display="inline">
          <g>
            <polygon fill="#ffffff" points="10.918,9.09 15.398,16.831 6.439,16.831    " style="">
					</polygon>
          </g>
          <g>
            <polygon fill="#ffffff" points="21.082,5.59 25.561,13.331 16.602,13.331    " style="">
					</polygon>
          </g>
          <g>
            <polygon fill="#ffffff" points="10.918,18.669 15.398,26.41 6.439,26.41    " style="">
					</polygon>
          </g>
          <g>
            <polygon points="21.082,15.169 25.561,22.91 16.602,22.91    " style="" fill="#ffffff">
					</polygon>
          </g>
        </g>
      </g>
      <g display="none">
        <g display="inline">
          <path fill="#ffffff" d="M31,0.984v30H1v-30H31 M32-0.016H0v32h32V-0.016L32-0.016z" style="">
				</path>
        </g>
        <g display="inline">
          <path fill="#ffffff" d="M10.918,11.087l2.745,4.744h-5.49L10.918,11.087 M10.918,9.09l-4.479,7.741h8.958L10.918,9.09L10.918,9.09    z" style="">
				</path>
        </g>
        <g display="inline">
          <path fill="#ffffff" d="M21.082,7.587l2.745,4.744h-5.49L21.082,7.587 M21.082,5.59l-4.479,7.741h8.958L21.082,5.59L21.082,5.59z" style="">
				</path>
        </g>
        <g display="inline">
          <path fill="#ffffff" d="M10.918,20.666l2.745,4.744h-5.49L10.918,20.666 M10.918,18.669L6.439,26.41h8.958L10.918,18.669    L10.918,18.669z" style="">
				</path>
        </g>
        <g display="inline">
          <path fill="#ffffff" d="M21.082,17.166l2.745,4.744h-5.49L21.082,17.166 M21.082,15.169l-4.479,7.741h8.958L21.082,15.169    L21.082,15.169z" style="">
				</path>
        </g>
      </g>
      <g display="none">
        <g display="inline">
          <g>
            <rect x="0.5" y="0.484" fill="#ffffff" width="31" height="31" style="">
				</rect>
          </g>
          <g>
            <g>
              <path d="M31,0.984v30H1v-30H31 M32-0.016H0v32h32V-0.016L32-0.016z" style="" fill="#ffffff">
					</path>
            </g>
          </g>
        </g>
        <g display="inline">
          <g>
            <polygon fill="#ffffff" points="7.307,16.331 10.918,10.088 14.53,16.331    " style="">
				</polygon>
          </g>
          <g>
            <g>
              <path d="M10.918,11.087l2.745,4.744h-5.49L10.918,11.087 M10.918,9.09l-4.479,7.741h8.958L10.918,9.09L10.918,9.09z" style="" fill="#ffffff">
					</path>
            </g>
          </g>
        </g>
        <g display="inline">
          <g>
            <polygon fill="#ffffff" points="17.47,12.831 21.082,6.588 24.693,12.831    " style="">
				</polygon>
          </g>
          <g>
            <path d="M21.082,7.587l2.745,4.744h-5.49L21.082,7.587 M21.082,5.59l-4.479,7.741h8.958L21.082,5.59L21.082,5.59z" style="" fill="#ffffff">
				</path>
          </g>
        </g>
        <g display="inline">
          <g>
            <polygon fill="#ffffff" points="7.307,25.91 10.918,19.667 14.53,25.91    " style="">
				</polygon>
          </g>
          <g>
            <g>
              <path d="M10.918,20.666l2.745,4.744h-5.49L10.918,20.666 M10.918,18.669L6.439,26.41h8.958L10.918,18.669L10.918,18.669z" style="" fill="#ffffff">
					</path>
            </g>
          </g>
        </g>
        <g display="inline">
          <g>
            <polygon fill="#ffffff" points="17.47,22.41 21.082,16.167 24.693,22.41    " style="">
				</polygon>
          </g>
          <g>
            <path d="M21.082,17.166l2.745,4.744h-5.49L21.082,17.166 M21.082,15.169l-4.479,7.741h8.958L21.082,15.169L21.082,15.169z" style="" fill="#ffffff">
				</path>
          </g>
        </g>
      </g>
      <g>
        <g>
          <path d="M0,31.984h32v-32H0V31.984z M2,1.984h28v28H2V1.984z" style="" fill="#ffffff"/>
          <polygon points="6.439,16.831 15.398,16.831 10.918,9.09   " style="" fill="#ffffff"/>
          <polygon points="16.602,13.331 25.561,13.331 21.082,5.59   " style="" fill="#ffffff"/>
          <polygon points="6.439,26.41 15.398,26.41 10.918,18.669   " style="" fill="#ffffff"/>
          <polygon points="16.602,22.91 25.561,22.91 21.082,15.169   " style="" fill="#ffffff"/>
        </g>
      </g>
      <desc>Created with Snap</desc>
      <defs/>
    </g>
    <g>
      <g transform="matrix(1.024,0,0,-1.024,0,0)">
        <path d="M875 -2L874 -6Q867 -6 851 -5Q835 -4 818 -3Q801 -2 785 -1Q769 0 762 0L743 0Q736 0 720 -1Q704 -2 687 -3Q670 -4 654 -5Q638 -6 631 -6L628 -2L631 16L635 20Q651 20 665 21Q680 23 688 30Q695 37 701 48Q708 59 708 87Q708 94 708 103Q708 113 707 127Q707 141 706 161Q705 181 703 211Q695 316 690 378Q686 441 683 476Q680 511 678 526Q677 541 676 551Q669 533 654 495Q639 458 619 409Q600 361 578 306Q556 251 534 197Q513 143 493 95Q474 47 460 13L413 13L213 549Q212 539 211 528Q210 517 209 501Q208 486 206 465Q205 445 203 415L189 231Q186 197 185 175Q184 153 183 137Q182 121 182 110Q182 99 182 87Q182 59 188 48Q195 37 203 30Q211 23 221 21Q232 20 248 20L252 16L255 -2L253 -6Q246 -6 232 -5Q219 -4 205 -3Q191 -2 177 -1Q164 0 157 0L138 0Q131 0 115 -1Q100 -2 82 -3Q65 -4 49 -5Q34 -6 27 -6L25 -2L28 16L34 20Q49 20 63 21Q77 23 87 30Q95 37 103 48Q112 59 116 87Q117 94 118 103Q119 113 120 127Q122 141 124 161Q126 181 128 211L142 414Q145 449 146 473Q148 497 148 514Q149 531 149 543Q150 555 150 567Q150 595 141 606Q133 618 125 624Q116 631 102 632Q88 634 72 634L67 638L64 656L66 660Q73 660 89 659Q105 658 122 657Q139 656 155 655Q171 654 178 654L213 654Q221 654 235 655Q250 656 259 658L264 655Q265 642 271 620Q278 599 287 572Q297 545 308 514Q319 484 330 454L398 269Q415 221 429 187Q443 154 454 128Q457 133 471 166Q485 200 505 249Q526 299 549 358Q572 417 593 473Q614 530 629 578Q644 626 648 654L653 658Q661 656 670 655Q679 654 687 654L723 654Q730 654 746 655Q762 656 779 657Q796 658 812 659Q828 660 835 660L837 656L834 638L829 634Q813 634 798 632Q784 631 776 624Q768 618 759 606Q751 594 751 567Q751 553 751 541Q752 529 752 513Q753 497 754 474Q756 451 759 415L771 231Q774 195 775 172Q777 150 778 135Q780 120 781 109Q783 99 785 87Q789 59 797 48Q805 37 813 30Q822 23 836 21Q851 20 867 20L872 16L875 -2ZM938 -234L942 -229Q956 -229 968 -228Q981 -227 993 -224Q1005 -220 1016 -212Q1028 -204 1042 -190Q1061 -170 1075 -148Q1089 -125 1098 -102L1130 -21L1061 160Q1057 169 1047 193Q1038 217 1026 246Q1014 276 1001 307Q989 338 980 362Q970 386 962 400Q952 416 939 425Q927 434 906 436L900 441L900 455L904 459Q921 457 940 455Q959 453 975 453L1014 453Q1030 453 1052 455Q1075 457 1095 459L1099 455L1099 443L1095 439Q1073 437 1058 427Q1044 418 1044 400Q1044 388 1053 357Q1063 327 1075 292Q1087 258 1098 228Q1109 198 1113 189L1163 59L1210 174Q1217 191 1229 220Q1241 249 1253 282Q1265 315 1273 346Q1282 378 1282 400Q1282 422 1266 429Q1250 437 1230 439L1226 443L1226 455L1230 459Q1269 453 1303 453L1344 453Q1361 453 1376 455Q1392 457 1411 459L1415 455L1415 441L1410 436Q1392 434 1382 426Q1373 418 1362 400Q1353 384 1341 360Q1330 336 1318 308Q1307 280 1295 251Q1284 222 1274 197Q1265 172 1258 153Q1252 135 1249 128L1151 -116Q1125 -181 1080 -213Q1036 -244 984 -257Q974 -259 966 -260Q958 -260 948 -260L940 -258L938 -234ZM1705 0L1572 0Q1565 0 1549 -1Q1533 -2 1516 -3Q1499 -4 1483 -5Q1467 -6 1460 -6L1458 -2L1461 16L1466 20Q1478 20 1494 21Q1510 23 1519 29Q1527 35 1534 48Q1541 61 1544 87Q1545 102 1545 132Q1546 162 1546 221L1546 471Q1546 491 1546 516Q1546 542 1544 567Q1542 594 1534 606Q1527 618 1519 624Q1510 629 1500 631Q1491 634 1466 634L1461 638L1458 656L1460 660Q1467 660 1478 659Q1490 658 1502 657Q1515 656 1528 655Q1541 654 1552 654L1588 654Q1599 654 1613 654Q1627 654 1641 654Q1656 655 1668 655Q1680 655 1687 655Q1795 655 1842 613Q1889 572 1889 504Q1889 474 1881 451Q1874 428 1861 410Q1848 393 1832 380Q1816 368 1798 359Q1871 346 1910 304Q1950 262 1950 188Q1950 138 1932 102Q1914 67 1881 44Q1849 22 1804 11Q1759 0 1705 0ZM1712 332L1617 332Q1617 304 1617 266Q1617 228 1617 191Q1618 155 1618 126Q1619 97 1620 87Q1622 60 1631 54Q1640 48 1655 48L1716 48Q1740 48 1768 54Q1797 60 1822 75Q1847 90 1864 117Q1881 144 1881 186Q1881 222 1868 249Q1855 277 1832 295Q1809 313 1778 322Q1748 332 1712 332ZM1634 369L1664 369Q1696 369 1725 373Q1754 377 1777 394Q1799 408 1813 434Q1827 461 1827 497Q1827 550 1797 578Q1767 606 1712 606L1622 606Q1620 577 1619 557Q1619 537 1618 522Q1617 507 1617 495Q1617 483 1617 472L1617 410Q1617 387 1619 378Q1621 369 1634 369ZM2332 -3L2326 7Q2329 18 2330 40Q2332 62 2335 81L2334 84Q2321 66 2303 49Q2285 32 2263 18Q2242 5 2217 -3Q2193 -11 2166 -11Q2135 -11 2111 0Q2087 11 2071 29Q2055 47 2047 71Q2039 95 2039 121Q2039 158 2056 185Q2073 213 2101 231Q2127 247 2162 257Q2198 267 2231 271Q2265 276 2292 277Q2319 279 2328 279L2342 279Q2341 316 2338 337Q2335 359 2330 373Q2319 403 2292 416Q2265 430 2227 430Q2211 430 2192 427Q2174 424 2157 416Q2141 408 2129 393Q2117 379 2115 356L2111 353L2089 353L2080 427L2083 433Q2088 439 2104 446Q2120 453 2141 459Q2163 466 2189 470Q2216 475 2242 475Q2278 475 2309 465Q2340 456 2362 437Q2385 418 2398 389Q2411 361 2411 323Q2411 281 2410 248Q2410 216 2409 188Q2408 161 2407 134Q2407 108 2407 78Q2409 55 2412 44Q2415 34 2422 29Q2430 21 2445 19Q2461 18 2477 18L2481 14L2482 0L2481 -4Q2463 -2 2442 -1Q2421 0 2401 0Q2363 0 2332 -3ZM2326 115Q2329 120 2332 127Q2336 134 2337 144L2342 244L2333 244Q2293 244 2253 239Q2213 235 2181 222Q2150 209 2130 186Q2110 163 2110 127Q2110 89 2132 66Q2154 44 2189 44Q2210 44 2231 51Q2252 58 2270 69Q2289 80 2303 92Q2318 104 2326 115ZM2697 281L2768 265Q2810 256 2835 240Q2861 225 2875 207Q2889 189 2893 170Q2898 152 2898 136Q2898 104 2885 77Q2872 50 2847 30Q2823 11 2788 0Q2753 -11 2709 -11Q2660 -11 2617 0Q2575 12 2550 25L2548 34L2563 137L2586 137L2589 133Q2589 85 2619 57Q2649 30 2706 30Q2740 30 2763 38Q2786 46 2799 59Q2813 72 2819 87Q2825 102 2825 116Q2825 125 2824 136Q2823 148 2816 159Q2809 171 2795 181Q2781 192 2755 199L2659 223Q2626 231 2605 244Q2584 257 2572 272Q2560 288 2555 305Q2550 323 2550 341Q2550 374 2563 399Q2576 425 2598 441Q2621 458 2651 466Q2681 475 2716 475Q2763 475 2802 463Q2842 451 2864 439L2867 430L2856 353L2835 353L2831 356Q2831 379 2818 394Q2806 410 2788 419Q2770 429 2750 433Q2730 437 2715 437Q2665 437 2643 412Q2621 387 2621 356Q2621 333 2636 312Q2652 292 2697 281ZM3424 293L3417 269L3401 262Q3347 262 3290 261Q3233 260 3178 260L3060 260Q3059 253 3059 246Q3059 240 3059 234Q3059 196 3070 161Q3081 127 3104 101Q3128 75 3165 59Q3202 44 3255 44Q3286 44 3321 50Q3357 57 3387 74L3397 68L3397 50L3387 39Q3363 20 3319 4Q3275 -11 3221 -11Q3168 -11 3124 6Q3081 24 3049 56Q3018 88 3000 132Q2983 176 2983 230Q2983 285 3001 330Q3019 375 3050 407Q3082 439 3124 457Q3167 475 3216 475Q3242 475 3274 468Q3307 461 3337 441Q3367 422 3391 386Q3415 351 3424 293ZM3217 430Q3185 430 3159 419Q3134 409 3114 391Q3095 374 3082 350Q3070 327 3065 301L3104 301Q3158 301 3209 302Q3260 304 3316 307Q3329 308 3333 314Q3338 320 3338 328Q3338 334 3337 339Q3336 344 3334 349Q3323 387 3293 408Q3263 430 3217 430Z" style="" fill="#ffffff"/>
      </g>
    </g>
  </g>
</svg>
